<svg width="24" height="24" viewBox="0 0 24 24" fill="none" xmlns="http://www.w3.org/2000/svg">
<path fill-rule="evenodd" clip-rule="evenodd" d="M0.0204166 11.6572C0.385794 17.7761 5.60954 22.6287 12 22.6287C18.3905 22.6287 23.6142 17.7761 23.9796 11.6572C23.9931 11.8841 24 12.1128 24 12.3429C24 18.781 18.6274 24.0001 12 24.0001C5.37258 24.0001 0 18.781 0 12.3429C0 12.1128 0.00686829 11.8841 0.0204166 11.6572Z" fill="#FF9C00"/>
<path d="M12 23.3143C18.6274 23.3143 24 18.0952 24 11.6571C24 5.21908 18.6274 0 12 0C5.37258 0 0 5.21908 0 11.6571C0 18.0952 5.37258 23.3143 12 23.3143Z" fill="#FFD81E"/>
<path d="M12 21.2571C17.4579 21.2571 21.8824 16.9591 21.8824 11.6571C21.8824 6.3552 17.4579 2.05713 12 2.05713C6.54216 2.05713 2.11768 6.3552 2.11768 11.6571C2.11768 16.9591 6.54216 21.2571 12 21.2571Z" fill="#FFC200"/>
<path fill-rule="evenodd" clip-rule="evenodd" d="M2.12386 12C2.11975 11.8862 2.11768 11.7719 2.11768 11.6571C2.11768 6.3552 6.54216 2.05713 12 2.05713C17.4579 2.05713 21.8824 6.3552 21.8824 11.6571C21.8824 11.7719 21.8803 11.8862 21.8762 12C21.6904 6.85685 17.3398 2.74284 12 2.74284C6.6603 2.74284 2.30971 6.85685 2.12386 12Z" fill="#FF9C00"/>
<g filter="url(#filter0_d_1021_15547)">
<path d="M14.1654 14.4937C13.9954 14.9313 13.7551 15.2634 13.4346 15.4919C13.1179 15.7187 12.7394 15.832 12.3041 15.832C11.9098 15.832 11.5525 15.7328 11.2356 15.5325C10.9151 15.3351 10.689 15.0535 10.5564 14.6877C10.4218 14.3245 10.3563 13.8268 10.3563 13.1945C10.3563 13.0501 10.3673 12.8969 10.369 12.7472L10.4557 10.7968C10.4557 10.7968 11.9203 10.7897 12.161 10.7897C12.9072 10.7897 13.4684 11.0027 13.8485 11.4239C14.2292 11.85 14.4216 12.4089 14.4216 13.1085C14.4216 13.5931 14.3349 14.0536 14.1654 14.4937ZM16.1556 10.8964C15.8142 10.3136 15.3629 9.89424 14.8004 9.64363C14.2361 9.3926 13.5446 9.26547 12.7217 9.26547C12.4227 9.26547 10.5669 9.23805 10.5386 9.24292L10.6977 6.47607H8.51284L8 17.226C8 17.226 8.21189 17.2225 8.50228 17.2189V17.226H10.1334L10.2008 15.9676C10.3243 16.1659 10.436 16.3289 10.5281 16.4386C10.6307 16.5626 10.7616 16.6849 10.9151 16.8044C11.0692 16.9301 11.2443 17.0364 11.4426 17.1259C11.6371 17.2189 11.8514 17.2897 12.0866 17.3376C12.3201 17.3872 12.5731 17.411 12.8452 17.411C13.4114 17.411 13.9352 17.3119 14.4184 17.1126C14.8993 16.9134 15.3095 16.5998 15.6478 16.1739C15.9874 15.7479 16.2405 15.2634 16.41 14.7134C16.5819 14.1669 16.6667 13.5992 16.6667 13.0191C16.6667 12.1901 16.4971 11.4805 16.1556 10.8964Z" fill="black"/>
</g>
<path d="M14.1654 14.4937C13.9954 14.9313 13.7551 15.2634 13.4346 15.4919C13.1179 15.7187 12.7394 15.832 12.3041 15.832C11.9098 15.832 11.5525 15.7328 11.2356 15.5325C10.9151 15.3351 10.689 15.0535 10.5564 14.6877C10.4218 14.3245 10.3563 13.8268 10.3563 13.1945C10.3563 13.0501 10.3673 12.8969 10.369 12.7472L10.4557 10.7968C10.4557 10.7968 11.9203 10.7897 12.161 10.7897C12.9072 10.7897 13.4684 11.0027 13.8485 11.4239C14.2292 11.85 14.4216 12.4089 14.4216 13.1085C14.4216 13.5931 14.3349 14.0536 14.1654 14.4937ZM16.1556 10.8964C15.8142 10.3136 15.3629 9.89424 14.8004 9.64363C14.2361 9.3926 13.5446 9.26547 12.7217 9.26547C12.4227 9.26547 10.5669 9.23805 10.5386 9.24292L10.6977 6.47607H8.51284L8 17.226C8 17.226 8.21189 17.2225 8.50228 17.2189V17.226H10.1334L10.2008 15.9676C10.3243 16.1659 10.436 16.3289 10.5281 16.4386C10.6307 16.5626 10.7616 16.6849 10.9151 16.8044C11.0692 16.9301 11.2443 17.0364 11.4426 17.1259C11.6371 17.2189 11.8514 17.2897 12.0866 17.3376C12.3201 17.3872 12.5731 17.411 12.8452 17.411C13.4114 17.411 13.9352 17.3119 14.4184 17.1126C14.8993 16.9134 15.3095 16.5998 15.6478 16.1739C15.9874 15.7479 16.2405 15.2634 16.41 14.7134C16.5819 14.1669 16.6667 13.5992 16.6667 13.0191C16.6667 12.1901 16.4971 11.4805 16.1556 10.8964Z" fill="white"/>
<defs>
<filter id="filter0_d_1021_15547" x="4" y="2.97607" width="16.6667" height="18.9351" filterUnits="userSpaceOnUse" color-interpolation-filters="sRGB">
<feFlood flood-opacity="0" result="BackgroundImageFix"/>
<feColorMatrix in="SourceAlpha" type="matrix" values="0 0 0 0 0 0 0 0 0 0 0 0 0 0 0 0 0 0 127 0" result="hardAlpha"/>
<feOffset dy="0.5"/>
<feGaussianBlur stdDeviation="2"/>
<feColorMatrix type="matrix" values="0 0 0 0 1 0 0 0 0 0.611765 0 0 0 0 0 0 0 0 1 0"/>
<feBlend mode="normal" in2="BackgroundImageFix" result="effect1_dropShadow_1021_15547"/>
<feBlend mode="normal" in="SourceGraphic" in2="effect1_dropShadow_1021_15547" result="shape"/>
</filter>
</defs>
</svg>
