<?xml version="1.0" encoding="utf-8"?>
<!-- Generator: Adobe Illustrator 16.0.3, SVG Export Plug-In . SVG Version: 6.00 Build 0)  -->
<!DOCTYPE svg PUBLIC "-//W3C//DTD SVG 1.1//EN" "http://www.w3.org/Graphics/SVG/1.1/DTD/svg11.dtd">
<svg version="1.1" xmlns="http://www.w3.org/2000/svg" xmlns:xlink="http://www.w3.org/1999/xlink" x="0px" y="0px" width="200px"
	 height="200px" viewBox="0 0 200 200" enable-background="new 0 0 200 200" xml:space="preserve">
<g id="圖層_2">
	<linearGradient id="SVGID_1_" gradientUnits="userSpaceOnUse" x1="32.1313" y1="28.8999" x2="168.6307" y2="171.8992">
		<stop  offset="0" style="stop-color:#ECA723"/>
		<stop  offset="1" style="stop-color:#D51368"/>
	</linearGradient>
	<circle fill="url(#SVGID_1_)" cx="100" cy="100" r="100"/>
</g>
<g id="圖層_1">
	<g>
		<path fill="#FFFFFF" d="M97.409,130.507c-14.685,0.311-27.754-11.806-28.274-28.817c-0.267-8.882,3.04-17.146,9.102-23.038
			c5.025-4.881,11.296-7.483,17.81-7.666l0.029-9.042L69.42,57.999c-8.141-1.157-15.108,3.965-15.113,11.478l-0.038,61.042
			c-0.021,7.243,7.257,12.612,15.096,11.502l27.986-4.089L97.409,130.507z"/>
		<path fill="#FFFFFF" d="M145.322,71.82c-1.463-1.886-3.398-3.096-5.451-3.396l-37.606-5.563l0,0l0.014,8.664
			c5.807,1.086,12.608,4.042,17.757,11.46l-4.042,3.777c-4.869-6.813-11.641-8.641-16.663-8.952c-0.023-0.006-0.03,0-0.035-0.006
			c-5.821-0.358-11.466,1.792-15.819,6.179c-4.481,4.529-6.914,10.784-6.701,17.463c0.393,13.77,11.565,23.603,23.753,22.121
			c0,0,0.012-0.012,0.012,0c10.141-1.25,17.751-10.063,18.782-20.335l-22.875,1.011l-0.194-6.797l28.259-0.488l0.081,3.02
			c0.335,13.646-8.375,26.245-20.999,29.634l-0.011,7.406l36.25-5.298c4.414-0.634,7.88-5.345,7.88-10.537l0.018-42.222
			C147.73,76.366,146.879,73.84,145.322,71.82z"/>
	</g>
</g>
</svg>
