<svg width="101" height="80" viewBox="0 0 101 80" fill="none" xmlns="http://www.w3.org/2000/svg">
<path d="M10.2828 15.02V65H18.4728V15.02H10.2828ZM28.2613 15.02V65H36.4513V15.02H28.2613ZM68.4298 14.04C60.7298 14.04 54.7098 16.49 50.3698 21.53C46.1698 26.29 44.1398 32.45 44.1398 40.08C44.1398 47.64 46.1698 53.8 50.3698 58.56C54.7098 63.46 60.7298 65.98 68.4298 65.98C76.0598 65.98 82.0798 63.53 86.4898 58.63C90.6898 53.94 92.7898 47.78 92.7898 40.08C92.7898 32.38 90.6898 26.15 86.4898 21.46C82.0798 16.49 76.0598 14.04 68.4298 14.04ZM68.4298 21.25C73.6098 21.25 77.5998 22.86 80.3998 26.22C83.1298 29.58 84.5298 34.2 84.5298 40.08C84.5298 45.96 83.1298 50.51 80.3998 53.8C77.5998 57.09 73.6098 58.77 68.4298 58.77C63.2498 58.77 59.1898 57.02 56.3898 53.59C53.6598 50.23 52.3298 45.75 52.3298 40.08C52.3298 34.34 53.6598 29.86 56.3898 26.5C59.2598 23 63.2498 21.25 68.4298 21.25Z" fill="#373737"/>
</svg>
